<?xml version="1.0" encoding="utf-8" standalone="no"?>
<!DOCTYPE svg PUBLIC "-//W3C//DTD SVG 1.1//EN"
  "http://www.w3.org/Graphics/SVG/1.1/DTD/svg11.dtd">
<svg xmlns:xlink="http://www.w3.org/1999/xlink" width="1800pt" height="576pt" viewBox="0 0 1800 576" xmlns="http://www.w3.org/2000/svg" version="1.1">
 <metadata>
  <rdf:RDF xmlns:dc="http://purl.org/dc/elements/1.1/" xmlns:cc="http://creativecommons.org/ns#" xmlns:rdf="http://www.w3.org/1999/02/22-rdf-syntax-ns#">
   <cc:Work>
    <dc:type rdf:resource="http://purl.org/dc/dcmitype/StillImage"/>
    <dc:date>2024-03-02T21:10:31.355709</dc:date>
    <dc:format>image/svg+xml</dc:format>
    <dc:creator>
     <cc:Agent>
      <dc:title>Matplotlib v3.5.3, https://matplotlib.org/</dc:title>
     </cc:Agent>
    </dc:creator>
   </cc:Work>
  </rdf:RDF>
 </metadata>
 <defs>
  <style type="text/css">*{stroke-linejoin: round; stroke-linecap: butt}</style>
 </defs>
 <g id="figure_1">
  <g id="patch_1">
   <path d="M 0 576 
L 1800 576 
L 1800 0 
L 0 0 
z
" style="fill: #ffffff"/>
  </g>
  <g id="axes_1">
   <g id="patch_2">
    <path d="M 225 512.64 
L 1620 512.64 
L 1620 69.12 
L 225 69.12 
z
" style="fill: #ffffff"/>
   </g>
   <g id="patch_3">
    <path d="M 1223.227135 512.64 
L 1223.227135 69.12 
L 1244.432938 69.12 
L 1244.432938 512.64 
z
" clip-path="url(#p866d40cf44)" style="fill: #808080; opacity: 0.5"/>
   </g>
   <g id="patch_4">
    <path d="M 481.878662 512.64 
L 481.878662 69.12 
L 499.719312 69.12 
L 499.719312 512.64 
z
" clip-path="url(#p866d40cf44)" style="fill: #808080; opacity: 0.5"/>
   </g>
   <g id="patch_5">
    <path d="M 558.262285 512.64 
L 558.262285 69.12 
L 584.222035 69.12 
L 584.222035 512.64 
z
" clip-path="url(#p866d40cf44)" style="fill: #808080; opacity: 0.5"/>
   </g>
   <g id="patch_6">
    <path d="M 678.606555 512.64 
L 678.606555 69.12 
L 688.328107 69.12 
L 688.328107 512.64 
z
" clip-path="url(#p866d40cf44)" style="fill: #808080; opacity: 0.5"/>
   </g>
   <g id="patch_7">
    <path d="M 707.824626 512.64 
L 707.824626 69.12 
L 733.83779 69.12 
L 733.83779 512.64 
z
" clip-path="url(#p866d40cf44)" style="fill: #808080; opacity: 0.5"/>
   </g>
   <g id="patch_8">
    <path d="M 883.400131 512.64 
L 883.400131 69.12 
L 896.380006 69.12 
L 896.380006 512.64 
z
" clip-path="url(#p866d40cf44)" style="fill: #808080; opacity: 0.5"/>
   </g>
   <g id="patch_9">
    <path d="M 1091.505445 512.64 
L 1091.505445 69.12 
L 1104.538735 69.12 
L 1104.538735 512.64 
z
" clip-path="url(#p866d40cf44)" style="fill: #808080; opacity: 0.5"/>
   </g>
   <g id="patch_10">
    <path d="M 1459.001482 512.64 
L 1459.001482 69.12 
L 1476.895548 69.12 
L 1476.895548 512.64 
z
" clip-path="url(#p866d40cf44)" style="fill: #0000ff; opacity: 0.5; stroke: #0000ff; stroke-linejoin: miter"/>
   </g>
   <g id="matplotlib.axis_1">
    <g id="xtick_1">
     <g id="line2d_1">
      <defs>
       <path id="m26d5c96ec8" d="M 0 0 
L 0 3.5 
" style="stroke: #000000; stroke-width: 0.8"/>
      </defs>
      <g>
       <use xlink:href="#m26d5c96ec8" x="286.806637" y="512.64" style="stroke: #000000; stroke-width: 0.8"/>
      </g>
     </g>
     <g id="text_1">
      <!-- 1960 -->
      <g transform="translate(274.081637 527.238438)scale(0.1 -0.1)">
       <defs>
        <path id="DejaVuSans-31" d="M 794 531 
L 1825 531 
L 1825 4091 
L 703 3866 
L 703 4441 
L 1819 4666 
L 2450 4666 
L 2450 531 
L 3481 531 
L 3481 0 
L 794 0 
L 794 531 
z
" transform="scale(0.015625)"/>
        <path id="DejaVuSans-39" d="M 703 97 
L 703 672 
Q 941 559 1184 500 
Q 1428 441 1663 441 
Q 2288 441 2617 861 
Q 2947 1281 2994 2138 
Q 2813 1869 2534 1725 
Q 2256 1581 1919 1581 
Q 1219 1581 811 2004 
Q 403 2428 403 3163 
Q 403 3881 828 4315 
Q 1253 4750 1959 4750 
Q 2769 4750 3195 4129 
Q 3622 3509 3622 2328 
Q 3622 1225 3098 567 
Q 2575 -91 1691 -91 
Q 1453 -91 1209 -44 
Q 966 3 703 97 
z
M 1959 2075 
Q 2384 2075 2632 2365 
Q 2881 2656 2881 3163 
Q 2881 3666 2632 3958 
Q 2384 4250 1959 4250 
Q 1534 4250 1286 3958 
Q 1038 3666 1038 3163 
Q 1038 2656 1286 2365 
Q 1534 2075 1959 2075 
z
" transform="scale(0.015625)"/>
        <path id="DejaVuSans-36" d="M 2113 2584 
Q 1688 2584 1439 2293 
Q 1191 2003 1191 1497 
Q 1191 994 1439 701 
Q 1688 409 2113 409 
Q 2538 409 2786 701 
Q 3034 994 3034 1497 
Q 3034 2003 2786 2293 
Q 2538 2584 2113 2584 
z
M 3366 4563 
L 3366 3988 
Q 3128 4100 2886 4159 
Q 2644 4219 2406 4219 
Q 1781 4219 1451 3797 
Q 1122 3375 1075 2522 
Q 1259 2794 1537 2939 
Q 1816 3084 2150 3084 
Q 2853 3084 3261 2657 
Q 3669 2231 3669 1497 
Q 3669 778 3244 343 
Q 2819 -91 2113 -91 
Q 1303 -91 875 529 
Q 447 1150 447 2328 
Q 447 3434 972 4092 
Q 1497 4750 2381 4750 
Q 2619 4750 2861 4703 
Q 3103 4656 3366 4563 
z
" transform="scale(0.015625)"/>
        <path id="DejaVuSans-30" d="M 2034 4250 
Q 1547 4250 1301 3770 
Q 1056 3291 1056 2328 
Q 1056 1369 1301 889 
Q 1547 409 2034 409 
Q 2525 409 2770 889 
Q 3016 1369 3016 2328 
Q 3016 3291 2770 3770 
Q 2525 4250 2034 4250 
z
M 2034 4750 
Q 2819 4750 3233 4129 
Q 3647 3509 3647 2328 
Q 3647 1150 3233 529 
Q 2819 -91 2034 -91 
Q 1250 -91 836 529 
Q 422 1150 422 2328 
Q 422 3509 836 4129 
Q 1250 4750 2034 4750 
z
" transform="scale(0.015625)"/>
       </defs>
       <use xlink:href="#DejaVuSans-31"/>
       <use xlink:href="#DejaVuSans-39" x="63.623047"/>
       <use xlink:href="#DejaVuSans-36" x="127.246094"/>
       <use xlink:href="#DejaVuSans-30" x="190.869141"/>
      </g>
     </g>
    </g>
    <g id="xtick_2">
     <g id="line2d_2">
      <g>
       <use xlink:href="#m26d5c96ec8" x="481.932077" y="512.64" style="stroke: #000000; stroke-width: 0.8"/>
      </g>
     </g>
     <g id="text_2">
      <!-- 1970 -->
      <g transform="translate(469.207077 527.238438)scale(0.1 -0.1)">
       <defs>
        <path id="DejaVuSans-37" d="M 525 4666 
L 3525 4666 
L 3525 4397 
L 1831 0 
L 1172 0 
L 2766 4134 
L 525 4134 
L 525 4666 
z
" transform="scale(0.015625)"/>
       </defs>
       <use xlink:href="#DejaVuSans-31"/>
       <use xlink:href="#DejaVuSans-39" x="63.623047"/>
       <use xlink:href="#DejaVuSans-37" x="127.246094"/>
       <use xlink:href="#DejaVuSans-30" x="190.869141"/>
      </g>
     </g>
    </g>
    <g id="xtick_3">
     <g id="line2d_3">
      <g>
       <use xlink:href="#m26d5c96ec8" x="677.004101" y="512.64" style="stroke: #000000; stroke-width: 0.8"/>
      </g>
     </g>
     <g id="text_3">
      <!-- 1980 -->
      <g transform="translate(664.279101 527.238438)scale(0.1 -0.1)">
       <defs>
        <path id="DejaVuSans-38" d="M 2034 2216 
Q 1584 2216 1326 1975 
Q 1069 1734 1069 1313 
Q 1069 891 1326 650 
Q 1584 409 2034 409 
Q 2484 409 2743 651 
Q 3003 894 3003 1313 
Q 3003 1734 2745 1975 
Q 2488 2216 2034 2216 
z
M 1403 2484 
Q 997 2584 770 2862 
Q 544 3141 544 3541 
Q 544 4100 942 4425 
Q 1341 4750 2034 4750 
Q 2731 4750 3128 4425 
Q 3525 4100 3525 3541 
Q 3525 3141 3298 2862 
Q 3072 2584 2669 2484 
Q 3125 2378 3379 2068 
Q 3634 1759 3634 1313 
Q 3634 634 3220 271 
Q 2806 -91 2034 -91 
Q 1263 -91 848 271 
Q 434 634 434 1313 
Q 434 1759 690 2068 
Q 947 2378 1403 2484 
z
M 1172 3481 
Q 1172 3119 1398 2916 
Q 1625 2713 2034 2713 
Q 2441 2713 2670 2916 
Q 2900 3119 2900 3481 
Q 2900 3844 2670 4047 
Q 2441 4250 2034 4250 
Q 1625 4250 1398 4047 
Q 1172 3844 1172 3481 
z
" transform="scale(0.015625)"/>
       </defs>
       <use xlink:href="#DejaVuSans-31"/>
       <use xlink:href="#DejaVuSans-39" x="63.623047"/>
       <use xlink:href="#DejaVuSans-38" x="127.246094"/>
       <use xlink:href="#DejaVuSans-30" x="190.869141"/>
      </g>
     </g>
    </g>
    <g id="xtick_4">
     <g id="line2d_4">
      <g>
       <use xlink:href="#m26d5c96ec8" x="872.12954" y="512.64" style="stroke: #000000; stroke-width: 0.8"/>
      </g>
     </g>
     <g id="text_4">
      <!-- 1990 -->
      <g transform="translate(859.40454 527.238438)scale(0.1 -0.1)">
       <use xlink:href="#DejaVuSans-31"/>
       <use xlink:href="#DejaVuSans-39" x="63.623047"/>
       <use xlink:href="#DejaVuSans-39" x="127.246094"/>
       <use xlink:href="#DejaVuSans-30" x="190.869141"/>
      </g>
     </g>
    </g>
    <g id="xtick_5">
     <g id="line2d_5">
      <g>
       <use xlink:href="#m26d5c96ec8" x="1067.201565" y="512.64" style="stroke: #000000; stroke-width: 0.8"/>
      </g>
     </g>
     <g id="text_5">
      <!-- 2000 -->
      <g transform="translate(1054.476565 527.238438)scale(0.1 -0.1)">
       <defs>
        <path id="DejaVuSans-32" d="M 1228 531 
L 3431 531 
L 3431 0 
L 469 0 
L 469 531 
Q 828 903 1448 1529 
Q 2069 2156 2228 2338 
Q 2531 2678 2651 2914 
Q 2772 3150 2772 3378 
Q 2772 3750 2511 3984 
Q 2250 4219 1831 4219 
Q 1534 4219 1204 4116 
Q 875 4013 500 3803 
L 500 4441 
Q 881 4594 1212 4672 
Q 1544 4750 1819 4750 
Q 2544 4750 2975 4387 
Q 3406 4025 3406 3419 
Q 3406 3131 3298 2873 
Q 3191 2616 2906 2266 
Q 2828 2175 2409 1742 
Q 1991 1309 1228 531 
z
" transform="scale(0.015625)"/>
       </defs>
       <use xlink:href="#DejaVuSans-32"/>
       <use xlink:href="#DejaVuSans-30" x="63.623047"/>
       <use xlink:href="#DejaVuSans-30" x="127.246094"/>
       <use xlink:href="#DejaVuSans-30" x="190.869141"/>
      </g>
     </g>
    </g>
    <g id="xtick_6">
     <g id="line2d_6">
      <g>
       <use xlink:href="#m26d5c96ec8" x="1262.327004" y="512.64" style="stroke: #000000; stroke-width: 0.8"/>
      </g>
     </g>
     <g id="text_6">
      <!-- 2010 -->
      <g transform="translate(1249.602004 527.238438)scale(0.1 -0.1)">
       <use xlink:href="#DejaVuSans-32"/>
       <use xlink:href="#DejaVuSans-30" x="63.623047"/>
       <use xlink:href="#DejaVuSans-31" x="127.246094"/>
       <use xlink:href="#DejaVuSans-30" x="190.869141"/>
      </g>
     </g>
    </g>
    <g id="xtick_7">
     <g id="line2d_7">
      <g>
       <use xlink:href="#m26d5c96ec8" x="1457.399028" y="512.64" style="stroke: #000000; stroke-width: 0.8"/>
      </g>
     </g>
     <g id="text_7">
      <!-- 2020 -->
      <g transform="translate(1444.674028 527.238438)scale(0.1 -0.1)">
       <use xlink:href="#DejaVuSans-32"/>
       <use xlink:href="#DejaVuSans-30" x="63.623047"/>
       <use xlink:href="#DejaVuSans-32" x="127.246094"/>
       <use xlink:href="#DejaVuSans-30" x="190.869141"/>
      </g>
     </g>
    </g>
   </g>
   <g id="matplotlib.axis_2">
    <g id="ytick_1">
     <g id="line2d_8">
      <defs>
       <path id="m74948f88e5" d="M 0 0 
L -3.5 0 
" style="stroke: #000000; stroke-width: 0.8"/>
      </defs>
      <g>
       <use xlink:href="#m74948f88e5" x="225" y="492.816315" style="stroke: #000000; stroke-width: 0.8"/>
      </g>
     </g>
     <g id="text_8">
      <!-- 0.0 -->
      <g transform="translate(202.096875 496.615534)scale(0.1 -0.1)">
       <defs>
        <path id="DejaVuSans-2e" d="M 684 794 
L 1344 794 
L 1344 0 
L 684 0 
L 684 794 
z
" transform="scale(0.015625)"/>
       </defs>
       <use xlink:href="#DejaVuSans-30"/>
       <use xlink:href="#DejaVuSans-2e" x="63.623047"/>
       <use xlink:href="#DejaVuSans-30" x="95.410156"/>
      </g>
     </g>
    </g>
    <g id="ytick_2">
     <g id="line2d_9">
      <g>
       <use xlink:href="#m74948f88e5" x="225" y="408.221878" style="stroke: #000000; stroke-width: 0.8"/>
      </g>
     </g>
     <g id="text_9">
      <!-- 0.2 -->
      <g transform="translate(202.096875 412.021097)scale(0.1 -0.1)">
       <use xlink:href="#DejaVuSans-30"/>
       <use xlink:href="#DejaVuSans-2e" x="63.623047"/>
       <use xlink:href="#DejaVuSans-32" x="95.410156"/>
      </g>
     </g>
    </g>
    <g id="ytick_3">
     <g id="line2d_10">
      <g>
       <use xlink:href="#m74948f88e5" x="225" y="323.62744" style="stroke: #000000; stroke-width: 0.8"/>
      </g>
     </g>
     <g id="text_10">
      <!-- 0.4 -->
      <g transform="translate(202.096875 327.426659)scale(0.1 -0.1)">
       <defs>
        <path id="DejaVuSans-34" d="M 2419 4116 
L 825 1625 
L 2419 1625 
L 2419 4116 
z
M 2253 4666 
L 3047 4666 
L 3047 1625 
L 3713 1625 
L 3713 1100 
L 3047 1100 
L 3047 0 
L 2419 0 
L 2419 1100 
L 313 1100 
L 313 1709 
L 2253 4666 
z
" transform="scale(0.015625)"/>
       </defs>
       <use xlink:href="#DejaVuSans-30"/>
       <use xlink:href="#DejaVuSans-2e" x="63.623047"/>
       <use xlink:href="#DejaVuSans-34" x="95.410156"/>
      </g>
     </g>
    </g>
    <g id="ytick_4">
     <g id="line2d_11">
      <g>
       <use xlink:href="#m74948f88e5" x="225" y="239.033003" style="stroke: #000000; stroke-width: 0.8"/>
      </g>
     </g>
     <g id="text_11">
      <!-- 0.6 -->
      <g transform="translate(202.096875 242.832222)scale(0.1 -0.1)">
       <use xlink:href="#DejaVuSans-30"/>
       <use xlink:href="#DejaVuSans-2e" x="63.623047"/>
       <use xlink:href="#DejaVuSans-36" x="95.410156"/>
      </g>
     </g>
    </g>
    <g id="ytick_5">
     <g id="line2d_12">
      <g>
       <use xlink:href="#m74948f88e5" x="225" y="154.438566" style="stroke: #000000; stroke-width: 0.8"/>
      </g>
     </g>
     <g id="text_12">
      <!-- 0.8 -->
      <g transform="translate(202.096875 158.237784)scale(0.1 -0.1)">
       <use xlink:href="#DejaVuSans-30"/>
       <use xlink:href="#DejaVuSans-2e" x="63.623047"/>
       <use xlink:href="#DejaVuSans-38" x="95.410156"/>
      </g>
     </g>
    </g>
    <g id="ytick_6">
     <g id="line2d_13">
      <g>
       <use xlink:href="#m74948f88e5" x="225" y="69.844128" style="stroke: #000000; stroke-width: 0.8"/>
      </g>
     </g>
     <g id="text_13">
      <!-- 1.0 -->
      <g transform="translate(202.096875 73.643347)scale(0.1 -0.1)">
       <use xlink:href="#DejaVuSans-31"/>
       <use xlink:href="#DejaVuSans-2e" x="63.623047"/>
       <use xlink:href="#DejaVuSans-30" x="95.410156"/>
      </g>
     </g>
    </g>
    <g id="text_14">
     <!-- Percent (monthly average) -->
     <g transform="translate(194.977344 391.280391)rotate(-90)scale(0.15 -0.15)">
      <defs>
       <path id="DejaVuSans-50" d="M 1259 4147 
L 1259 2394 
L 2053 2394 
Q 2494 2394 2734 2622 
Q 2975 2850 2975 3272 
Q 2975 3691 2734 3919 
Q 2494 4147 2053 4147 
L 1259 4147 
z
M 628 4666 
L 2053 4666 
Q 2838 4666 3239 4311 
Q 3641 3956 3641 3272 
Q 3641 2581 3239 2228 
Q 2838 1875 2053 1875 
L 1259 1875 
L 1259 0 
L 628 0 
L 628 4666 
z
" transform="scale(0.015625)"/>
       <path id="DejaVuSans-65" d="M 3597 1894 
L 3597 1613 
L 953 1613 
Q 991 1019 1311 708 
Q 1631 397 2203 397 
Q 2534 397 2845 478 
Q 3156 559 3463 722 
L 3463 178 
Q 3153 47 2828 -22 
Q 2503 -91 2169 -91 
Q 1331 -91 842 396 
Q 353 884 353 1716 
Q 353 2575 817 3079 
Q 1281 3584 2069 3584 
Q 2775 3584 3186 3129 
Q 3597 2675 3597 1894 
z
M 3022 2063 
Q 3016 2534 2758 2815 
Q 2500 3097 2075 3097 
Q 1594 3097 1305 2825 
Q 1016 2553 972 2059 
L 3022 2063 
z
" transform="scale(0.015625)"/>
       <path id="DejaVuSans-72" d="M 2631 2963 
Q 2534 3019 2420 3045 
Q 2306 3072 2169 3072 
Q 1681 3072 1420 2755 
Q 1159 2438 1159 1844 
L 1159 0 
L 581 0 
L 581 3500 
L 1159 3500 
L 1159 2956 
Q 1341 3275 1631 3429 
Q 1922 3584 2338 3584 
Q 2397 3584 2469 3576 
Q 2541 3569 2628 3553 
L 2631 2963 
z
" transform="scale(0.015625)"/>
       <path id="DejaVuSans-63" d="M 3122 3366 
L 3122 2828 
Q 2878 2963 2633 3030 
Q 2388 3097 2138 3097 
Q 1578 3097 1268 2742 
Q 959 2388 959 1747 
Q 959 1106 1268 751 
Q 1578 397 2138 397 
Q 2388 397 2633 464 
Q 2878 531 3122 666 
L 3122 134 
Q 2881 22 2623 -34 
Q 2366 -91 2075 -91 
Q 1284 -91 818 406 
Q 353 903 353 1747 
Q 353 2603 823 3093 
Q 1294 3584 2113 3584 
Q 2378 3584 2631 3529 
Q 2884 3475 3122 3366 
z
" transform="scale(0.015625)"/>
       <path id="DejaVuSans-6e" d="M 3513 2113 
L 3513 0 
L 2938 0 
L 2938 2094 
Q 2938 2591 2744 2837 
Q 2550 3084 2163 3084 
Q 1697 3084 1428 2787 
Q 1159 2491 1159 1978 
L 1159 0 
L 581 0 
L 581 3500 
L 1159 3500 
L 1159 2956 
Q 1366 3272 1645 3428 
Q 1925 3584 2291 3584 
Q 2894 3584 3203 3211 
Q 3513 2838 3513 2113 
z
" transform="scale(0.015625)"/>
       <path id="DejaVuSans-74" d="M 1172 4494 
L 1172 3500 
L 2356 3500 
L 2356 3053 
L 1172 3053 
L 1172 1153 
Q 1172 725 1289 603 
Q 1406 481 1766 481 
L 2356 481 
L 2356 0 
L 1766 0 
Q 1100 0 847 248 
Q 594 497 594 1153 
L 594 3053 
L 172 3053 
L 172 3500 
L 594 3500 
L 594 4494 
L 1172 4494 
z
" transform="scale(0.015625)"/>
       <path id="DejaVuSans-20" transform="scale(0.015625)"/>
       <path id="DejaVuSans-28" d="M 1984 4856 
Q 1566 4138 1362 3434 
Q 1159 2731 1159 2009 
Q 1159 1288 1364 580 
Q 1569 -128 1984 -844 
L 1484 -844 
Q 1016 -109 783 600 
Q 550 1309 550 2009 
Q 550 2706 781 3412 
Q 1013 4119 1484 4856 
L 1984 4856 
z
" transform="scale(0.015625)"/>
       <path id="DejaVuSans-6d" d="M 3328 2828 
Q 3544 3216 3844 3400 
Q 4144 3584 4550 3584 
Q 5097 3584 5394 3201 
Q 5691 2819 5691 2113 
L 5691 0 
L 5113 0 
L 5113 2094 
Q 5113 2597 4934 2840 
Q 4756 3084 4391 3084 
Q 3944 3084 3684 2787 
Q 3425 2491 3425 1978 
L 3425 0 
L 2847 0 
L 2847 2094 
Q 2847 2600 2669 2842 
Q 2491 3084 2119 3084 
Q 1678 3084 1418 2786 
Q 1159 2488 1159 1978 
L 1159 0 
L 581 0 
L 581 3500 
L 1159 3500 
L 1159 2956 
Q 1356 3278 1631 3431 
Q 1906 3584 2284 3584 
Q 2666 3584 2933 3390 
Q 3200 3197 3328 2828 
z
" transform="scale(0.015625)"/>
       <path id="DejaVuSans-6f" d="M 1959 3097 
Q 1497 3097 1228 2736 
Q 959 2375 959 1747 
Q 959 1119 1226 758 
Q 1494 397 1959 397 
Q 2419 397 2687 759 
Q 2956 1122 2956 1747 
Q 2956 2369 2687 2733 
Q 2419 3097 1959 3097 
z
M 1959 3584 
Q 2709 3584 3137 3096 
Q 3566 2609 3566 1747 
Q 3566 888 3137 398 
Q 2709 -91 1959 -91 
Q 1206 -91 779 398 
Q 353 888 353 1747 
Q 353 2609 779 3096 
Q 1206 3584 1959 3584 
z
" transform="scale(0.015625)"/>
       <path id="DejaVuSans-68" d="M 3513 2113 
L 3513 0 
L 2938 0 
L 2938 2094 
Q 2938 2591 2744 2837 
Q 2550 3084 2163 3084 
Q 1697 3084 1428 2787 
Q 1159 2491 1159 1978 
L 1159 0 
L 581 0 
L 581 4863 
L 1159 4863 
L 1159 2956 
Q 1366 3272 1645 3428 
Q 1925 3584 2291 3584 
Q 2894 3584 3203 3211 
Q 3513 2838 3513 2113 
z
" transform="scale(0.015625)"/>
       <path id="DejaVuSans-6c" d="M 603 4863 
L 1178 4863 
L 1178 0 
L 603 0 
L 603 4863 
z
" transform="scale(0.015625)"/>
       <path id="DejaVuSans-79" d="M 2059 -325 
Q 1816 -950 1584 -1140 
Q 1353 -1331 966 -1331 
L 506 -1331 
L 506 -850 
L 844 -850 
Q 1081 -850 1212 -737 
Q 1344 -625 1503 -206 
L 1606 56 
L 191 3500 
L 800 3500 
L 1894 763 
L 2988 3500 
L 3597 3500 
L 2059 -325 
z
" transform="scale(0.015625)"/>
       <path id="DejaVuSans-61" d="M 2194 1759 
Q 1497 1759 1228 1600 
Q 959 1441 959 1056 
Q 959 750 1161 570 
Q 1363 391 1709 391 
Q 2188 391 2477 730 
Q 2766 1069 2766 1631 
L 2766 1759 
L 2194 1759 
z
M 3341 1997 
L 3341 0 
L 2766 0 
L 2766 531 
Q 2569 213 2275 61 
Q 1981 -91 1556 -91 
Q 1019 -91 701 211 
Q 384 513 384 1019 
Q 384 1609 779 1909 
Q 1175 2209 1959 2209 
L 2766 2209 
L 2766 2266 
Q 2766 2663 2505 2880 
Q 2244 3097 1772 3097 
Q 1472 3097 1187 3025 
Q 903 2953 641 2809 
L 641 3341 
Q 956 3463 1253 3523 
Q 1550 3584 1831 3584 
Q 2591 3584 2966 3190 
Q 3341 2797 3341 1997 
z
" transform="scale(0.015625)"/>
       <path id="DejaVuSans-76" d="M 191 3500 
L 800 3500 
L 1894 563 
L 2988 3500 
L 3597 3500 
L 2284 0 
L 1503 0 
L 191 3500 
z
" transform="scale(0.015625)"/>
       <path id="DejaVuSans-67" d="M 2906 1791 
Q 2906 2416 2648 2759 
Q 2391 3103 1925 3103 
Q 1463 3103 1205 2759 
Q 947 2416 947 1791 
Q 947 1169 1205 825 
Q 1463 481 1925 481 
Q 2391 481 2648 825 
Q 2906 1169 2906 1791 
z
M 3481 434 
Q 3481 -459 3084 -895 
Q 2688 -1331 1869 -1331 
Q 1566 -1331 1297 -1286 
Q 1028 -1241 775 -1147 
L 775 -588 
Q 1028 -725 1275 -790 
Q 1522 -856 1778 -856 
Q 2344 -856 2625 -561 
Q 2906 -266 2906 331 
L 2906 616 
Q 2728 306 2450 153 
Q 2172 0 1784 0 
Q 1141 0 747 490 
Q 353 981 353 1791 
Q 353 2603 747 3093 
Q 1141 3584 1784 3584 
Q 2172 3584 2450 3431 
Q 2728 3278 2906 2969 
L 2906 3500 
L 3481 3500 
L 3481 434 
z
" transform="scale(0.015625)"/>
       <path id="DejaVuSans-29" d="M 513 4856 
L 1013 4856 
Q 1481 4119 1714 3412 
Q 1947 2706 1947 2009 
Q 1947 1309 1714 600 
Q 1481 -109 1013 -844 
L 513 -844 
Q 928 -128 1133 580 
Q 1338 1288 1338 2009 
Q 1338 2731 1133 3434 
Q 928 4138 513 4856 
z
" transform="scale(0.015625)"/>
      </defs>
      <use xlink:href="#DejaVuSans-50"/>
      <use xlink:href="#DejaVuSans-65" x="56.677734"/>
      <use xlink:href="#DejaVuSans-72" x="118.201172"/>
      <use xlink:href="#DejaVuSans-63" x="157.064453"/>
      <use xlink:href="#DejaVuSans-65" x="212.044922"/>
      <use xlink:href="#DejaVuSans-6e" x="273.568359"/>
      <use xlink:href="#DejaVuSans-74" x="336.947266"/>
      <use xlink:href="#DejaVuSans-20" x="376.15625"/>
      <use xlink:href="#DejaVuSans-28" x="407.943359"/>
      <use xlink:href="#DejaVuSans-6d" x="446.957031"/>
      <use xlink:href="#DejaVuSans-6f" x="544.369141"/>
      <use xlink:href="#DejaVuSans-6e" x="605.550781"/>
      <use xlink:href="#DejaVuSans-74" x="668.929688"/>
      <use xlink:href="#DejaVuSans-68" x="708.138672"/>
      <use xlink:href="#DejaVuSans-6c" x="771.517578"/>
      <use xlink:href="#DejaVuSans-79" x="799.300781"/>
      <use xlink:href="#DejaVuSans-20" x="858.480469"/>
      <use xlink:href="#DejaVuSans-61" x="890.267578"/>
      <use xlink:href="#DejaVuSans-76" x="951.546875"/>
      <use xlink:href="#DejaVuSans-65" x="1010.726562"/>
      <use xlink:href="#DejaVuSans-72" x="1072.25"/>
      <use xlink:href="#DejaVuSans-61" x="1113.363281"/>
      <use xlink:href="#DejaVuSans-67" x="1174.642578"/>
      <use xlink:href="#DejaVuSans-65" x="1238.119141"/>
      <use xlink:href="#DejaVuSans-29" x="1299.642578"/>
     </g>
    </g>
   </g>
   <g id="line2d_14">
    <path d="M 288.409091 448.523195 
L 289.904714 451.525917 
L 291.613998 448.063217 
L 293.216452 446.861248 
L 294.872321 460.254673 
L 296.474774 444.43319 
L 298.130643 447.976149 
L 299.786512 439.874336 
L 301.388965 412.250987 
L 303.044834 400.069657 
L 304.647288 391.672852 
L 306.303157 375.024348 
L 309.454649 404.218254 
L 311.110518 433.692056 
L 312.712971 440.130793 
L 314.36884 440.577632 
L 315.971294 468.272971 
L 317.627162 465.491394 
L 319.283031 461.947592 
L 320.885485 454.491344 
L 322.541354 465.151903 
L 324.143807 464.049938 
L 325.799676 465.195627 
L 327.455545 465.543303 
L 328.951168 456.277045 
L 330.607037 455.887102 
L 332.209491 461.584348 
L 333.865359 458.877719 
L 335.467813 463.733641 
L 337.123682 468.14001 
L 338.779551 467.065081 
L 340.382004 468.726538 
L 342.037873 466.16066 
L 343.640327 460.253067 
L 345.296195 460.127456 
L 346.952064 455.931824 
L 348.447688 453.750071 
L 350.103556 449.143138 
L 351.70601 444.124824 
L 353.361879 447.724099 
L 354.964332 447.669096 
L 356.620201 442.790025 
L 358.27607 446.548574 
L 359.878524 448.578359 
L 361.534392 448.146104 
L 364.792715 437.371056 
L 366.448584 433.214996 
L 367.944207 437.856941 
L 369.653491 440.137261 
L 371.255945 441.752964 
L 372.911813 437.840491 
L 374.514267 437.741097 
L 376.170136 427.788583 
L 377.826005 416.809282 
L 379.428458 418.074494 
L 381.084327 415.106783 
L 382.686781 410.599395 
L 384.342649 411.33414 
L 385.998518 414.232782 
L 387.494142 412.04139 
L 389.15001 416.318822 
L 390.752464 421.976364 
L 392.408333 419.237421 
L 394.010786 417.156388 
L 395.666655 419.966547 
L 397.322524 417.111569 
L 398.924978 415.634996 
L 400.580846 411.947095 
L 402.1833 403.505301 
L 403.839169 389.227326 
L 405.495038 392.647526 
L 406.990661 383.847588 
L 408.64653 383.847588 
L 410.248983 382.981463 
L 411.904852 387.392637 
L 413.507306 395.136877 
L 415.163175 390.902971 
L 416.819043 395.026818 
L 418.421497 391.508738 
L 420.077366 386.981976 
L 421.679819 390.181695 
L 423.335688 378.953149 
L 424.991557 357.968111 
L 426.48718 372.672678 
L 428.143049 381.779098 
L 429.745503 368.200027 
L 431.401372 369.05168 
L 433.003825 384.673002 
L 434.659694 375.758668 
L 436.315563 378.759541 
L 437.918016 334.162179 
L 439.573885 318.810233 
L 441.176339 337.409936 
L 442.832208 342.890897 
L 444.488076 341.833423 
L 445.9837 362.818358 
L 447.692984 382.84089 
L 449.295437 420.478691 
L 450.951306 449.781815 
L 452.55376 459.815239 
L 454.209629 432.487427 
L 455.865497 435.909983 
L 457.467951 427.678706 
L 459.12382 429.863254 
L 460.726273 435.492343 
L 462.382142 416.208489 
L 464.038011 401.203927 
L 465.533634 405.1445 
L 467.189503 403.784681 
L 468.791957 377.234056 
L 470.447825 371.649823 
L 472.050279 371.288963 
L 473.706148 371.18559 
L 475.362017 384.417679 
L 476.96447 378.821935 
L 478.620339 374.660457 
L 480.222793 376.077391 
L 481.878662 357.314598 
L 483.53453 339.823502 
L 485.030154 356.615375 
L 486.686022 376.520486 
L 488.288476 355.698262 
L 489.944345 376.439149 
L 491.546799 360.906766 
L 493.202667 317.1001 
L 494.858536 316.161337 
L 496.46099 352.057937 
L 498.116859 355.406858 
L 499.719312 334.375938 
L 501.375181 324.016816 
L 503.03105 332.966865 
L 504.526673 355.730188 
L 506.182542 387.946951 
L 507.784996 421.87416 
L 509.440864 432.931089 
L 511.043318 438.615735 
L 512.699187 430.437393 
L 514.355055 437.089115 
L 515.957509 445.903255 
L 519.215832 460.428915 
L 520.8717 459.517142 
L 522.527569 469.699626 
L 524.023193 483.281946 
L 525.732476 482.079964 
L 527.33493 474.823926 
L 528.990799 480.475921 
L 530.593252 468.436369 
L 532.249121 450.385498 
L 533.90499 463.889737 
L 535.507444 456.968921 
L 537.163312 458.146506 
L 538.765766 463.076049 
L 540.421635 473.445571 
L 542.077504 485.47518 
L 543.573127 488.415812 
L 545.228996 482.216703 
L 546.831449 484.238065 
L 548.487318 483.708716 
L 550.089772 479.709478 
L 551.745641 478.295343 
L 553.401509 479.449174 
L 555.003963 472.022923 
L 556.659832 467.50757 
L 558.262285 458.864189 
L 559.918154 449.129654 
L 561.574023 435.640132 
L 563.069646 434.579511 
L 564.725515 404.562609 
L 566.327969 386.899527 
L 567.983838 393.207431 
L 569.586291 315.036549 
L 571.24216 247.739466 
L 572.898029 204.618777 
L 574.500482 213.562051 
L 576.156351 300.104946 
L 577.758805 226.111434 
L 579.414674 268.95601 
L 581.070542 259.680219 
L 582.566166 328.887588 
L 584.222035 261.743975 
L 585.824488 252.119021 
L 587.480357 270.753101 
L 589.082811 303.649079 
L 590.738679 367.804767 
L 592.394548 237.768501 
L 593.997002 337.965544 
L 595.652871 384.329593 
L 597.255324 363.545121 
L 598.911193 371.574011 
L 600.567062 444.028947 
L 602.062685 471.080939 
L 603.771969 479.317271 
L 605.374423 485.084441 
L 607.030292 487.423385 
L 608.632745 483.957315 
L 610.288614 471.418884 
L 611.944483 471.846468 
L 613.546936 473.207237 
L 615.202805 477.696543 
L 616.805259 484.535066 
L 618.461128 484.428804 
L 620.116996 487.885592 
L 621.61262 488.199538 
L 623.268489 486.571398 
L 624.870942 486.322679 
L 626.526811 486.180073 
L 628.129265 482.926742 
L 629.785133 485.036951 
L 631.441002 485.434706 
L 633.043456 483.966668 
L 634.699325 483.781912 
L 636.301778 484.530693 
L 637.957647 484.467415 
L 639.613516 485.206349 
L 641.109139 486.600489 
L 642.765008 487.889037 
L 644.367462 487.658434 
L 647.625784 480.056303 
L 649.281653 477.552275 
L 650.937522 471.651365 
L 652.539975 458.349112 
L 654.195844 450.216834 
L 657.454166 461.401083 
L 659.110035 456.747801 
L 660.605659 459.170015 
L 662.261527 465.6661 
L 663.863981 469.172354 
L 665.51985 471.332166 
L 667.122303 464.254603 
L 668.778172 460.048956 
L 670.434041 446.576221 
L 672.036495 393.498666 
L 673.692363 399.3371 
L 675.294817 353.423594 
L 676.950686 326.71148 
L 678.606555 306.144431 
L 680.102178 309.510107 
L 681.811462 293.586607 
L 683.413916 302.225992 
L 685.069784 292.69118 
L 686.672238 318.553144 
L 688.328107 302.648333 
L 689.983975 279.436574 
L 693.242298 174.231804 
L 694.844752 196.734659 
L 696.50062 152.330879 
L 698.156489 189.721688 
L 699.652112 257.462263 
L 701.307981 95.925054 
L 702.910435 140.039088 
L 704.566304 455.284256 
L 706.168757 485.334386 
L 707.824626 475.54606 
L 709.480495 467.780962 
L 711.082949 430.918482 
L 712.738817 329.223923 
L 714.341271 190.272106 
L 715.99714 89.28 
L 717.653008 96.492924 
L 719.148632 139.208339 
L 720.804501 275.296931 
L 722.406954 296.776599 
L 724.062823 100.817908 
L 725.665277 164.509255 
L 727.321145 215.735176 
L 728.977014 220.28282 
L 730.579468 352.087221 
L 732.235337 437.743926 
L 733.83779 478.98709 
L 735.493659 484.448683 
L 737.149528 471.238345 
L 738.645151 391.912974 
L 740.30102 414.883618 
L 741.903474 414.050787 
L 743.559342 439.992191 
L 745.161796 453.414546 
L 746.817665 479.640652 
L 748.473534 492.4133 
L 750.075987 492.48 
L 751.731856 489.279835 
L 753.33431 481.330049 
L 754.990179 483.305523 
L 756.646047 483.369043 
L 758.141671 483.311638 
L 759.850955 474.42404 
L 761.453408 475.344846 
L 763.109277 475.371952 
L 764.711731 471.092423 
L 766.367599 476.676642 
L 768.023468 480.532565 
L 769.625922 483.12858 
L 771.281791 486.457962 
L 772.884244 486.685979 
L 774.540113 485.464255 
L 776.195982 484.821885 
L 777.691605 484.421869 
L 779.347474 484.71083 
L 780.949928 486.192445 
L 782.605796 490.552862 
L 784.20825 490.95788 
L 785.864119 488.568422 
L 787.519988 473.273222 
L 789.122441 470.738961 
L 790.77831 478.330691 
L 792.380764 487.059586 
L 794.036632 490.420341 
L 795.692501 491.14843 
L 797.188125 489.3318 
L 798.843993 489.814007 
L 800.446447 490.612877 
L 802.102316 490.250195 
L 803.704769 489.573139 
L 805.360638 489.648083 
L 807.016507 489.401421 
L 808.618961 489.857576 
L 810.274829 488.686358 
L 811.877283 482.982664 
L 813.533152 476.049882 
L 815.189021 475.149937 
L 816.684644 460.337519 
L 818.340513 442.220994 
L 819.942966 444.508652 
L 821.598835 458.935197 
L 823.201289 460.006666 
L 824.857158 455.824921 
L 826.513026 463.020172 
L 828.11548 479.540572 
L 829.771349 479.751585 
L 831.373802 471.538262 
L 833.029671 460.791486 
L 834.68554 463.531796 
L 836.181163 463.644367 
L 837.890447 463.644367 
L 839.492901 481.684751 
L 841.14877 488.258261 
L 842.751223 486.28582 
L 844.407092 486.58261 
L 846.062961 486.005397 
L 847.665415 488.527653 
L 849.321283 490.623932 
L 850.923737 489.680764 
L 852.579606 489.926925 
L 854.235475 487.468902 
L 855.731098 484.175314 
L 858.98942 486.973666 
L 860.645289 487.011012 
L 862.247743 482.362476 
L 863.903612 479.938288 
L 865.55948 476.990639 
L 867.161934 463.696638 
L 868.817803 451.671337 
L 870.420256 437.708104 
L 872.076125 427.013089 
L 875.227617 396.037811 
L 876.883486 386.266087 
L 878.48594 386.285936 
L 880.141809 378.720647 
L 881.744262 352.315278 
L 883.400131 354.755505 
L 885.056 361.338722 
L 886.658453 382.974169 
L 888.314322 377.347535 
L 889.916776 359.590067 
L 891.572645 362.737102 
L 893.228513 394.442335 
L 894.724137 406.625369 
L 896.380006 402.876747 
L 897.982459 426.803178 
L 899.638328 426.908562 
L 901.240782 408.174476 
L 902.89665 415.895674 
L 904.552519 444.057251 
L 906.154973 455.212581 
L 907.810842 456.485021 
L 909.413295 446.627448 
L 911.069164 447.919628 
L 912.725033 469.570044 
L 914.220656 471.100769 
L 915.92994 478.158995 
L 917.532394 481.840094 
L 919.188262 485.041467 
L 920.790716 486.121212 
L 922.446585 485.901229 
L 924.102454 484.61527 
L 925.704907 482.746706 
L 927.360776 484.409753 
L 928.96323 487.90134 
L 932.274967 490.340258 
L 933.770591 491.309201 
L 935.426459 491.289417 
L 937.028913 491.857398 
L 938.684782 491.920066 
L 940.287236 491.586347 
L 941.943104 491.687819 
L 943.598973 491.259038 
L 945.201427 491.417663 
L 946.857295 491.908663 
L 948.459749 491.912379 
L 950.115618 491.497789 
L 951.771487 491.634483 
L 953.26711 490.852786 
L 954.922979 489.453018 
L 956.525432 489.852575 
L 958.181301 489.73241 
L 959.783755 488.51759 
L 963.095492 486.559765 
L 964.697946 483.612125 
L 966.353815 482.095445 
L 967.956269 486.122597 
L 969.612137 487.032653 
L 971.268006 487.59169 
L 972.763629 487.072338 
L 974.419498 489.042344 
L 976.021952 490.611168 
L 977.677821 489.283302 
L 979.280274 488.765105 
L 980.936143 488.786834 
L 982.592012 487.055415 
L 984.194466 487.717311 
L 985.850334 487.165594 
L 987.452788 485.81647 
L 989.108657 478.637809 
L 990.764525 475.494655 
L 992.260149 464.76965 
L 993.969433 456.012587 
L 995.571886 453.558209 
L 997.227755 429.546272 
L 998.830209 412.588326 
L 1000.486078 423.820475 
L 1002.141946 437.958919 
L 1005.400269 417.428814 
L 1007.002722 403.175302 
L 1008.658591 403.879317 
L 1010.31446 410.348105 
L 1011.810083 432.895302 
L 1013.465952 450.292523 
L 1015.068406 460.941976 
L 1016.724275 466.505017 
L 1018.326728 469.545248 
L 1019.982597 466.331997 
L 1021.638466 461.919275 
L 1023.240919 467.063903 
L 1024.896788 460.112484 
L 1026.499242 443.16177 
L 1028.155111 454.032664 
L 1029.810979 460.43698 
L 1031.306603 454.734142 
L 1032.962472 460.265284 
L 1034.564925 466.646811 
L 1036.220794 464.436591 
L 1037.823248 460.972162 
L 1039.479116 443.119332 
L 1041.134985 442.395547 
L 1042.737439 447.905495 
L 1044.393308 437.256291 
L 1045.995761 416.430323 
L 1047.65163 409.86969 
L 1049.307499 398.701448 
L 1050.803122 396.935262 
L 1052.458991 408.025437 
L 1054.061445 413.412274 
L 1055.717313 410.348105 
L 1057.319767 400.479401 
L 1058.975636 398.956662 
L 1060.631505 394.302345 
L 1062.233958 374.618207 
L 1063.889827 407.268522 
L 1067.148149 380.681919 
L 1068.804018 391.103746 
L 1072.008925 421.745486 
L 1073.611379 428.611658 
L 1075.267248 437.150297 
L 1076.869702 451.925609 
L 1078.52557 447.682908 
L 1080.181439 446.365395 
L 1081.783893 447.43934 
L 1083.439762 447.588399 
L 1085.042215 431.102981 
L 1086.698084 437.863991 
L 1088.353953 451.011052 
L 1089.849576 430.488183 
L 1091.505445 402.075321 
L 1093.107899 382.343265 
L 1094.763767 407.869841 
L 1096.366221 389.082544 
L 1098.02209 359.224734 
L 1099.677959 323.74552 
L 1101.280412 330.339344 
L 1102.936281 312.180908 
L 1104.538735 303.450505 
L 1106.194603 296.878162 
L 1107.850472 354.892668 
L 1111.001964 398.215383 
L 1112.604418 450.303242 
L 1114.260287 469.657835 
L 1115.86274 470.367472 
L 1117.518609 468.556432 
L 1119.174478 464.79995 
L 1120.776932 478.328677 
L 1122.4328 483.906314 
L 1124.035254 487.919766 
L 1125.691123 491.1929 
L 1127.346992 491.16487 
L 1128.842615 490.422059 
L 1130.498484 491.44199 
L 1132.100937 491.472821 
L 1133.756806 491.279672 
L 1135.35926 490.591379 
L 1137.015129 489.291181 
L 1138.670997 486.720705 
L 1140.273451 481.546169 
L 1141.92932 483.402331 
L 1143.531773 488.340877 
L 1145.187642 488.494483 
L 1146.843511 488.779669 
L 1148.339134 487.6306 
L 1150.048418 487.196413 
L 1151.650872 488.430019 
L 1153.306741 485.344047 
L 1154.909194 484.266693 
L 1156.565063 489.988365 
L 1158.220932 491.512925 
L 1159.823385 491.018437 
L 1161.479254 491.149195 
L 1164.737577 491.150357 
L 1166.393445 490.811271 
L 1167.889069 490.317928 
L 1169.544938 488.877558 
L 1171.147391 491.269183 
L 1172.80326 491.933675 
L 1174.405714 491.392036 
L 1176.061582 490.371808 
L 1177.717451 488.148332 
L 1179.319905 484.961275 
L 1180.975774 483.055773 
L 1182.578227 479.217127 
L 1184.234096 477.536532 
L 1185.889965 473.979325 
L 1187.385588 466.281809 
L 1189.041457 470.150505 
L 1190.643911 463.655517 
L 1192.299779 453.165595 
L 1193.902233 439.456583 
L 1195.558102 435.0373 
L 1197.213971 425.990677 
L 1200.472293 420.774671 
L 1202.074747 414.094796 
L 1203.730615 408.20133 
L 1205.386484 374.047946 
L 1206.882108 369.776224 
L 1208.537976 375.854666 
L 1210.14043 391.131172 
L 1211.796299 390.748849 
L 1213.398752 384.582065 
L 1215.054621 367.938944 
L 1216.71049 346.856652 
L 1218.312944 346.452943 
L 1219.968812 336.022172 
L 1221.571266 320.550004 
L 1223.227135 326.091615 
L 1224.883004 332.735498 
L 1226.378627 323.288498 
L 1228.087911 316.381478 
L 1231.346233 357.456396 
L 1232.948687 399.243526 
L 1234.604556 372.076417 
L 1236.260425 398.854078 
L 1237.862878 411.89966 
L 1239.518747 411.874739 
L 1241.121201 430.123514 
L 1242.777069 443.195018 
L 1244.432938 437.565283 
L 1245.928562 466.311326 
L 1247.58443 481.83831 
L 1249.186884 483.903977 
L 1250.842753 479.935148 
L 1252.445206 481.458982 
L 1254.101075 483.667218 
L 1255.756944 480.303817 
L 1257.359398 486.003892 
L 1259.015266 490.293944 
L 1260.61772 491.0927 
L 1262.273589 484.194928 
L 1263.929458 484.176074 
L 1265.425081 486.264425 
L 1267.08095 486.683617 
L 1268.683403 488.100708 
L 1270.339272 490.191985 
L 1271.941726 491.639816 
L 1273.597595 491.217914 
L 1275.253463 491.334909 
L 1276.855917 490.892845 
L 1280.114239 491.131112 
L 1281.770108 491.644116 
L 1283.425977 491.908655 
L 1284.9216 491.730377 
L 1286.577469 491.729137 
L 1288.179923 491.941673 
L 1289.835792 490.818361 
L 1291.438245 490.052234 
L 1293.094114 488.693106 
L 1294.749983 485.96812 
L 1296.352436 485.524846 
L 1298.008305 484.436641 
L 1299.610759 486.79146 
L 1301.266628 490.376323 
L 1302.922496 490.744096 
L 1304.41812 491.418816 
L 1306.127404 490.997941 
L 1307.729857 491.282258 
L 1310.98818 489.411249 
L 1312.644049 489.411249 
L 1314.299917 482.640954 
L 1315.902371 476.946473 
L 1317.55824 480.14498 
L 1319.160693 477.592454 
L 1322.472431 476.271942 
L 1323.968054 474.845805 
L 1325.623923 479.383389 
L 1327.226377 476.924816 
L 1328.882246 470.329674 
L 1330.484699 464.612681 
L 1332.140568 460.977272 
L 1333.796437 466.298476 
L 1335.39889 467.269749 
L 1337.054759 468.531582 
L 1338.657213 465.636734 
L 1340.313082 468.54482 
L 1341.96895 473.862572 
L 1343.464574 474.842322 
L 1345.120442 474.602199 
L 1346.722896 470.050789 
L 1348.378765 475.103805 
L 1349.981219 482.17117 
L 1351.637087 485.986809 
L 1353.292956 487.537957 
L 1354.89541 488.270643 
L 1356.551279 486.302859 
L 1358.153732 487.085809 
L 1359.809601 488.560808 
L 1361.46547 488.491634 
L 1362.961093 487.180644 
L 1366.219416 487.363711 
L 1367.875284 485.879604 
L 1369.477738 486.199923 
L 1371.133607 485.657703 
L 1372.789475 484.194928 
L 1374.391929 485.659279 
L 1376.047798 482.640954 
L 1377.650252 483.087038 
L 1379.30612 481.025695 
L 1380.961989 474.128294 
L 1382.457613 476.723142 
L 1384.166896 477.797077 
L 1385.76935 475.816992 
L 1387.425219 481.028097 
L 1389.027672 483.516536 
L 1390.683541 482.789423 
L 1392.33941 479.575936 
L 1393.941864 480.504599 
L 1395.597732 478.618333 
L 1397.200186 480.300224 
L 1398.856055 477.736032 
L 1400.511924 473.536604 
L 1402.007547 462.354905 
L 1403.663416 466.860545 
L 1405.265869 466.235189 
L 1406.921738 464.865738 
L 1408.524192 458.532793 
L 1410.180061 451.151386 
L 1411.835929 453.87194 
L 1415.094252 460.846016 
L 1416.696705 469.580673 
L 1418.352574 476.998707 
L 1420.008443 475.643213 
L 1421.504066 475.167016 
L 1423.159935 470.891916 
L 1424.762389 463.147746 
L 1426.418258 459.704881 
L 1428.020711 451.073205 
L 1429.67658 452.826738 
L 1431.332449 450.57917 
L 1432.934902 449.135379 
L 1434.590771 454.600617 
L 1436.193225 446.484423 
L 1437.849094 444.34998 
L 1439.504962 448.765532 
L 1441.000586 454.147565 
L 1442.656455 446.98057 
L 1444.258908 445.398985 
L 1445.914777 445.789607 
L 1447.517231 439.91794 
L 1449.173099 435.294556 
L 1450.828968 431.00122 
L 1452.431422 431.462405 
L 1454.087291 433.09409 
L 1455.689744 426.120764 
L 1457.345613 402.529077 
L 1459.001482 392.902062 
L 1460.497105 388.685656 
L 1462.206389 378.277297 
L 1463.808843 376.54422 
L 1465.464712 367.519597 
L 1467.067165 353.744823 
L 1468.723034 359.669931 
L 1470.378903 332.395377 
L 1471.981356 345.600917 
L 1473.637225 370.002863 
L 1475.239679 388.722116 
L 1476.895548 392.89448 
L 1478.551416 386.211765 
L 1480.04704 362.836345 
L 1481.702909 414.710953 
L 1483.305362 410.520868 
L 1484.961231 411.99782 
L 1486.563685 414.135384 
L 1488.219553 408.302191 
L 1489.875422 412.756364 
L 1491.477876 414.187656 
L 1493.133745 422.506055 
L 1494.736198 428.359469 
L 1496.392067 432.070945 
L 1498.047936 441.259864 
L 1499.543559 452.24846 
L 1501.199428 466.331321 
L 1502.801882 467.629382 
L 1504.45775 466.988991 
L 1506.060204 462.865698 
L 1507.716073 454.474116 
L 1509.371942 452.695922 
L 1510.974395 457.036595 
L 1512.630264 464.63241 
L 1514.232718 463.933664 
L 1515.888586 460.232343 
L 1517.544455 467.251078 
L 1519.040079 466.84044 
L 1520.695947 469.585486 
L 1522.298401 477.123064 
L 1523.95427 475.447834 
L 1525.556723 467.751942 
L 1527.212592 418.260922 
L 1528.868461 386.440772 
L 1530.470915 395.247985 
L 1532.126783 382.729142 
L 1533.729237 331.848061 
L 1537.040975 251.158048 
L 1538.536598 262.34036 
L 1540.245882 248.461563 
L 1541.848336 204.258641 
L 1543.504204 193.123667 
L 1545.106658 208.133377 
L 1546.762527 213.614482 
L 1548.418395 235.54114 
L 1550.020849 255.274189 
L 1551.676718 297.77974 
L 1553.279172 273.552888 
L 1554.93504 226.612598 
L 1556.590909 232.802586 
L 1556.590909 232.802586 
" clip-path="url(#p866d40cf44)" style="fill: none; stroke: #ff0000; stroke-width: 1.5; stroke-linecap: square"/>
   </g>
   <g id="patch_11">
    <path d="M 225 512.64 
L 225 69.12 
" style="fill: none; stroke: #000000; stroke-width: 0.8; stroke-linejoin: miter; stroke-linecap: square"/>
   </g>
   <g id="patch_12">
    <path d="M 225 512.64 
L 1620 512.64 
" style="fill: none; stroke: #000000; stroke-width: 0.8; stroke-linejoin: miter; stroke-linecap: square"/>
   </g>
   <g id="text_15">
    <!-- Probablity of U.S. Recession, Twelve Months Ahead of Term Spread Readings -->
    <g transform="translate(636.339844 63.12)scale(0.15 -0.15)">
     <defs>
      <path id="DejaVuSans-62" d="M 3116 1747 
Q 3116 2381 2855 2742 
Q 2594 3103 2138 3103 
Q 1681 3103 1420 2742 
Q 1159 2381 1159 1747 
Q 1159 1113 1420 752 
Q 1681 391 2138 391 
Q 2594 391 2855 752 
Q 3116 1113 3116 1747 
z
M 1159 2969 
Q 1341 3281 1617 3432 
Q 1894 3584 2278 3584 
Q 2916 3584 3314 3078 
Q 3713 2572 3713 1747 
Q 3713 922 3314 415 
Q 2916 -91 2278 -91 
Q 1894 -91 1617 61 
Q 1341 213 1159 525 
L 1159 0 
L 581 0 
L 581 4863 
L 1159 4863 
L 1159 2969 
z
" transform="scale(0.015625)"/>
      <path id="DejaVuSans-69" d="M 603 3500 
L 1178 3500 
L 1178 0 
L 603 0 
L 603 3500 
z
M 603 4863 
L 1178 4863 
L 1178 4134 
L 603 4134 
L 603 4863 
z
" transform="scale(0.015625)"/>
      <path id="DejaVuSans-66" d="M 2375 4863 
L 2375 4384 
L 1825 4384 
Q 1516 4384 1395 4259 
Q 1275 4134 1275 3809 
L 1275 3500 
L 2222 3500 
L 2222 3053 
L 1275 3053 
L 1275 0 
L 697 0 
L 697 3053 
L 147 3053 
L 147 3500 
L 697 3500 
L 697 3744 
Q 697 4328 969 4595 
Q 1241 4863 1831 4863 
L 2375 4863 
z
" transform="scale(0.015625)"/>
      <path id="DejaVuSans-55" d="M 556 4666 
L 1191 4666 
L 1191 1831 
Q 1191 1081 1462 751 
Q 1734 422 2344 422 
Q 2950 422 3222 751 
Q 3494 1081 3494 1831 
L 3494 4666 
L 4128 4666 
L 4128 1753 
Q 4128 841 3676 375 
Q 3225 -91 2344 -91 
Q 1459 -91 1007 375 
Q 556 841 556 1753 
L 556 4666 
z
" transform="scale(0.015625)"/>
      <path id="DejaVuSans-53" d="M 3425 4513 
L 3425 3897 
Q 3066 4069 2747 4153 
Q 2428 4238 2131 4238 
Q 1616 4238 1336 4038 
Q 1056 3838 1056 3469 
Q 1056 3159 1242 3001 
Q 1428 2844 1947 2747 
L 2328 2669 
Q 3034 2534 3370 2195 
Q 3706 1856 3706 1288 
Q 3706 609 3251 259 
Q 2797 -91 1919 -91 
Q 1588 -91 1214 -16 
Q 841 59 441 206 
L 441 856 
Q 825 641 1194 531 
Q 1563 422 1919 422 
Q 2459 422 2753 634 
Q 3047 847 3047 1241 
Q 3047 1584 2836 1778 
Q 2625 1972 2144 2069 
L 1759 2144 
Q 1053 2284 737 2584 
Q 422 2884 422 3419 
Q 422 4038 858 4394 
Q 1294 4750 2059 4750 
Q 2388 4750 2728 4690 
Q 3069 4631 3425 4513 
z
" transform="scale(0.015625)"/>
      <path id="DejaVuSans-52" d="M 2841 2188 
Q 3044 2119 3236 1894 
Q 3428 1669 3622 1275 
L 4263 0 
L 3584 0 
L 2988 1197 
Q 2756 1666 2539 1819 
Q 2322 1972 1947 1972 
L 1259 1972 
L 1259 0 
L 628 0 
L 628 4666 
L 2053 4666 
Q 2853 4666 3247 4331 
Q 3641 3997 3641 3322 
Q 3641 2881 3436 2590 
Q 3231 2300 2841 2188 
z
M 1259 4147 
L 1259 2491 
L 2053 2491 
Q 2509 2491 2742 2702 
Q 2975 2913 2975 3322 
Q 2975 3731 2742 3939 
Q 2509 4147 2053 4147 
L 1259 4147 
z
" transform="scale(0.015625)"/>
      <path id="DejaVuSans-73" d="M 2834 3397 
L 2834 2853 
Q 2591 2978 2328 3040 
Q 2066 3103 1784 3103 
Q 1356 3103 1142 2972 
Q 928 2841 928 2578 
Q 928 2378 1081 2264 
Q 1234 2150 1697 2047 
L 1894 2003 
Q 2506 1872 2764 1633 
Q 3022 1394 3022 966 
Q 3022 478 2636 193 
Q 2250 -91 1575 -91 
Q 1294 -91 989 -36 
Q 684 19 347 128 
L 347 722 
Q 666 556 975 473 
Q 1284 391 1588 391 
Q 1994 391 2212 530 
Q 2431 669 2431 922 
Q 2431 1156 2273 1281 
Q 2116 1406 1581 1522 
L 1381 1569 
Q 847 1681 609 1914 
Q 372 2147 372 2553 
Q 372 3047 722 3315 
Q 1072 3584 1716 3584 
Q 2034 3584 2315 3537 
Q 2597 3491 2834 3397 
z
" transform="scale(0.015625)"/>
      <path id="DejaVuSans-2c" d="M 750 794 
L 1409 794 
L 1409 256 
L 897 -744 
L 494 -744 
L 750 256 
L 750 794 
z
" transform="scale(0.015625)"/>
      <path id="DejaVuSans-54" d="M -19 4666 
L 3928 4666 
L 3928 4134 
L 2272 4134 
L 2272 0 
L 1638 0 
L 1638 4134 
L -19 4134 
L -19 4666 
z
" transform="scale(0.015625)"/>
      <path id="DejaVuSans-77" d="M 269 3500 
L 844 3500 
L 1563 769 
L 2278 3500 
L 2956 3500 
L 3675 769 
L 4391 3500 
L 4966 3500 
L 4050 0 
L 3372 0 
L 2619 2869 
L 1863 0 
L 1184 0 
L 269 3500 
z
" transform="scale(0.015625)"/>
      <path id="DejaVuSans-4d" d="M 628 4666 
L 1569 4666 
L 2759 1491 
L 3956 4666 
L 4897 4666 
L 4897 0 
L 4281 0 
L 4281 4097 
L 3078 897 
L 2444 897 
L 1241 4097 
L 1241 0 
L 628 0 
L 628 4666 
z
" transform="scale(0.015625)"/>
      <path id="DejaVuSans-41" d="M 2188 4044 
L 1331 1722 
L 3047 1722 
L 2188 4044 
z
M 1831 4666 
L 2547 4666 
L 4325 0 
L 3669 0 
L 3244 1197 
L 1141 1197 
L 716 0 
L 50 0 
L 1831 4666 
z
" transform="scale(0.015625)"/>
      <path id="DejaVuSans-64" d="M 2906 2969 
L 2906 4863 
L 3481 4863 
L 3481 0 
L 2906 0 
L 2906 525 
Q 2725 213 2448 61 
Q 2172 -91 1784 -91 
Q 1150 -91 751 415 
Q 353 922 353 1747 
Q 353 2572 751 3078 
Q 1150 3584 1784 3584 
Q 2172 3584 2448 3432 
Q 2725 3281 2906 2969 
z
M 947 1747 
Q 947 1113 1208 752 
Q 1469 391 1925 391 
Q 2381 391 2643 752 
Q 2906 1113 2906 1747 
Q 2906 2381 2643 2742 
Q 2381 3103 1925 3103 
Q 1469 3103 1208 2742 
Q 947 2381 947 1747 
z
" transform="scale(0.015625)"/>
      <path id="DejaVuSans-70" d="M 1159 525 
L 1159 -1331 
L 581 -1331 
L 581 3500 
L 1159 3500 
L 1159 2969 
Q 1341 3281 1617 3432 
Q 1894 3584 2278 3584 
Q 2916 3584 3314 3078 
Q 3713 2572 3713 1747 
Q 3713 922 3314 415 
Q 2916 -91 2278 -91 
Q 1894 -91 1617 61 
Q 1341 213 1159 525 
z
M 3116 1747 
Q 3116 2381 2855 2742 
Q 2594 3103 2138 3103 
Q 1681 3103 1420 2742 
Q 1159 2381 1159 1747 
Q 1159 1113 1420 752 
Q 1681 391 2138 391 
Q 2594 391 2855 752 
Q 3116 1113 3116 1747 
z
" transform="scale(0.015625)"/>
     </defs>
     <use xlink:href="#DejaVuSans-50"/>
     <use xlink:href="#DejaVuSans-72" x="58.552734"/>
     <use xlink:href="#DejaVuSans-6f" x="97.416016"/>
     <use xlink:href="#DejaVuSans-62" x="158.597656"/>
     <use xlink:href="#DejaVuSans-61" x="222.074219"/>
     <use xlink:href="#DejaVuSans-62" x="283.353516"/>
     <use xlink:href="#DejaVuSans-6c" x="346.830078"/>
     <use xlink:href="#DejaVuSans-69" x="374.613281"/>
     <use xlink:href="#DejaVuSans-74" x="402.396484"/>
     <use xlink:href="#DejaVuSans-79" x="441.605469"/>
     <use xlink:href="#DejaVuSans-20" x="500.785156"/>
     <use xlink:href="#DejaVuSans-6f" x="532.572266"/>
     <use xlink:href="#DejaVuSans-66" x="593.753906"/>
     <use xlink:href="#DejaVuSans-20" x="628.958984"/>
     <use xlink:href="#DejaVuSans-55" x="660.746094"/>
     <use xlink:href="#DejaVuSans-2e" x="733.939453"/>
     <use xlink:href="#DejaVuSans-53" x="765.726562"/>
     <use xlink:href="#DejaVuSans-2e" x="829.203125"/>
     <use xlink:href="#DejaVuSans-20" x="860.990234"/>
     <use xlink:href="#DejaVuSans-52" x="892.777344"/>
     <use xlink:href="#DejaVuSans-65" x="957.759766"/>
     <use xlink:href="#DejaVuSans-63" x="1019.283203"/>
     <use xlink:href="#DejaVuSans-65" x="1074.263672"/>
     <use xlink:href="#DejaVuSans-73" x="1135.787109"/>
     <use xlink:href="#DejaVuSans-73" x="1187.886719"/>
     <use xlink:href="#DejaVuSans-69" x="1239.986328"/>
     <use xlink:href="#DejaVuSans-6f" x="1267.769531"/>
     <use xlink:href="#DejaVuSans-6e" x="1328.951172"/>
     <use xlink:href="#DejaVuSans-2c" x="1392.330078"/>
     <use xlink:href="#DejaVuSans-20" x="1424.117188"/>
     <use xlink:href="#DejaVuSans-54" x="1455.904297"/>
     <use xlink:href="#DejaVuSans-77" x="1500.488281"/>
     <use xlink:href="#DejaVuSans-65" x="1582.275391"/>
     <use xlink:href="#DejaVuSans-6c" x="1643.798828"/>
     <use xlink:href="#DejaVuSans-76" x="1671.582031"/>
     <use xlink:href="#DejaVuSans-65" x="1730.761719"/>
     <use xlink:href="#DejaVuSans-20" x="1792.285156"/>
     <use xlink:href="#DejaVuSans-4d" x="1824.072266"/>
     <use xlink:href="#DejaVuSans-6f" x="1910.351562"/>
     <use xlink:href="#DejaVuSans-6e" x="1971.533203"/>
     <use xlink:href="#DejaVuSans-74" x="2034.912109"/>
     <use xlink:href="#DejaVuSans-68" x="2074.121094"/>
     <use xlink:href="#DejaVuSans-73" x="2137.5"/>
     <use xlink:href="#DejaVuSans-20" x="2189.599609"/>
     <use xlink:href="#DejaVuSans-41" x="2221.386719"/>
     <use xlink:href="#DejaVuSans-68" x="2289.794922"/>
     <use xlink:href="#DejaVuSans-65" x="2353.173828"/>
     <use xlink:href="#DejaVuSans-61" x="2414.697266"/>
     <use xlink:href="#DejaVuSans-64" x="2475.976562"/>
     <use xlink:href="#DejaVuSans-20" x="2539.453125"/>
     <use xlink:href="#DejaVuSans-6f" x="2571.240234"/>
     <use xlink:href="#DejaVuSans-66" x="2632.421875"/>
     <use xlink:href="#DejaVuSans-20" x="2667.626953"/>
     <use xlink:href="#DejaVuSans-54" x="2699.414062"/>
     <use xlink:href="#DejaVuSans-65" x="2743.498047"/>
     <use xlink:href="#DejaVuSans-72" x="2805.021484"/>
     <use xlink:href="#DejaVuSans-6d" x="2844.384766"/>
     <use xlink:href="#DejaVuSans-20" x="2941.796875"/>
     <use xlink:href="#DejaVuSans-53" x="2973.583984"/>
     <use xlink:href="#DejaVuSans-70" x="3037.060547"/>
     <use xlink:href="#DejaVuSans-72" x="3100.537109"/>
     <use xlink:href="#DejaVuSans-65" x="3139.400391"/>
     <use xlink:href="#DejaVuSans-61" x="3200.923828"/>
     <use xlink:href="#DejaVuSans-64" x="3262.203125"/>
     <use xlink:href="#DejaVuSans-20" x="3325.679688"/>
     <use xlink:href="#DejaVuSans-52" x="3357.466797"/>
     <use xlink:href="#DejaVuSans-65" x="3422.449219"/>
     <use xlink:href="#DejaVuSans-61" x="3483.972656"/>
     <use xlink:href="#DejaVuSans-64" x="3545.251953"/>
     <use xlink:href="#DejaVuSans-69" x="3608.728516"/>
     <use xlink:href="#DejaVuSans-6e" x="3636.511719"/>
     <use xlink:href="#DejaVuSans-67" x="3699.890625"/>
     <use xlink:href="#DejaVuSans-73" x="3763.367188"/>
    </g>
   </g>
  </g>
 </g>
 <defs>
  <clipPath id="p866d40cf44">
   <rect x="225" y="69.12" width="1395" height="443.52"/>
  </clipPath>
 </defs>
</svg>
